<?xml version="1.0" encoding="iso-8859-1"?>
<!-- Generator: Adobe Illustrator 19.0.0, SVG Export Plug-In . SVG Version: 6.00 Build 0)  -->
<svg version="1.1" id="Layer_1" xmlns="http://www.w3.org/2000/svg" xmlns:xlink="http://www.w3.org/1999/xlink" x="0px" y="0px"
	 viewBox="0 0 512.001 512.001" style="enable-background:new 0 0 512.001 512.001;" xml:space="preserve">
<g>
	<path style="fill:#FFC61B;" d="M250.341,345.785c-30.432-0.755-53.319-17.102-53.319-31.187c0-7.043,6.288-17.604,14.084-17.604
		c9.558,0,17.102,16.347,39.235,18.862v-50.049c-22.887-8.551-48.791-18.359-48.791-50.551c0-31.94,23.641-45.773,48.791-49.043
		v-7.041c0-3.27,3.773-6.288,8.551-6.288c4.275,0,8.551,3.018,8.551,6.288v6.538c16.348,0.503,43.008,5.281,43.008,19.869
		c0,5.785-4.025,17.352-13.33,17.352c-7.043,0-12.826-8.048-29.677-9.306v44.264c22.384,8.3,47.534,19.617,47.534,53.821
		c0,30.935-19.366,48.791-47.534,53.319v7.796c0,3.27-4.275,6.288-8.551,6.288c-4.778,0-8.551-3.018-8.551-6.288L250.341,345.785
		L250.341,345.785z M252.353,232.358v-37.977c-12.576,2.012-20.119,8.048-20.119,17.606
		C232.232,223.053,240.783,227.831,252.353,232.358z M265.432,271.844v43.761c11.066-2.263,18.862-8.803,18.862-20.624
		C284.294,282.659,276.245,276.622,265.432,271.844z"/>
	<path style="fill:#FFC61B;" d="M417.384,446.881H69.16c-7.909,0-14.323-6.412-14.323-14.323c0-7.911,6.414-14.323,14.323-14.323
		h348.224c5.882,0,10.668-4.785,10.668-10.668V180.1c0-7.911,6.414-14.323,14.323-14.323s14.323,6.412,14.323,14.323v227.467
		C456.698,429.245,439.06,446.881,417.384,446.881z"/>
	<path style="fill:#FFC61B;" d="M69.16,346.127c-7.909,0-14.323-6.412-14.323-14.323V104.433c0-21.678,17.636-39.314,39.312-39.314
		h348.226c7.909,0,14.323,6.412,14.323,14.323s-6.414,14.323-14.323,14.323H94.149c-5.881,0-10.666,4.785-10.666,10.668v227.371
		C83.483,339.715,77.069,346.127,69.16,346.127z"/>
</g>
<path style="fill:#FEE187;" d="M442.375,387.664c0,7.878,6.196,12.547,13.769,10.376l23.427-6.716
	c13.267-3.804,20.94-17.643,17.136-30.91l-50.384-175.741c-2.171-7.573-3.947-7.323-3.947,0.554L442.375,387.664L442.375,387.664z"
	/>
<path style="fill:#FFC61B;" d="M452.507,412.895L452.507,412.895c-13.942,0-24.455-10.847-24.455-25.231V185.226
	c0-18.926,11.894-20.397,15.539-20.397c11.943,0,15.373,11.964,16.5,15.896l50.384,175.741c5.974,20.837-6.117,42.651-26.956,48.625
	l-23.427,6.716C457.573,412.53,455.023,412.895,452.507,412.895z M456.698,272.835V382.98l18.925-5.426
	c5.653-1.621,8.935-7.54,7.313-13.194L456.698,272.835z"/>
<path style="fill:#FEE187;" d="M401.829,79.442c7.878,0,12.547-6.196,10.376-13.769l-7.385-25.761
	c-3.804-13.267-17.643-20.94-30.91-17.136L190.026,75.495c-7.573,2.171-7.323,3.947,0.554,3.947H401.829z"/>
<path style="fill:#FFC61B;" d="M401.829,93.765H190.58c-15.174,0-19.389-7.336-20.256-13.489
	c-0.865-6.155,1.166-14.367,15.754-18.55L369.962,9.009c3.539-1.014,7.189-1.528,10.847-1.528c17.434,0,32.97,11.713,37.778,28.486
	l7.385,25.761c2.286,7.972,0.92,16.098-3.748,22.291S410.122,93.765,401.829,93.765z M278.189,65.119h118.958l-6.094-21.26
	c-1.306-4.553-5.519-7.734-10.242-7.734c-0.988,0-1.982,0.142-2.953,0.42L278.189,65.119z"/>
<path style="fill:#FEE187;" d="M69.158,124.469c0-7.878-6.196-12.547-13.769-10.376l-22.96,6.583
	c-13.267,3.804-20.94,17.643-17.136,30.91L65.211,325.7c2.171,7.573,3.947,7.323,3.947-0.554
	C69.158,325.145,69.158,124.469,69.158,124.469z"/>
<path style="fill:#FFC61B;" d="M67.942,345.543c-0.003,0-0.004,0-0.007,0C56,345.537,52.569,333.577,51.442,329.649L1.527,155.533
	c-5.974-20.837,6.117-42.651,26.956-48.625l22.96-6.583c2.517-0.72,5.067-1.087,7.583-1.087c13.942,0,24.455,10.847,24.455,25.231
	v200.675c0,3.034-0.199,5.405-0.626,7.462C81.001,341.544,74.031,345.543,67.942,345.543z M54.835,129.153l-18.458,5.291
	c-5.653,1.621-8.935,7.54-7.313,13.194l25.771,89.895V129.153z"/>
<path style="fill:#FEE187;" d="M110.169,432.558c-7.878,0-12.547,6.196-10.376,13.769l7.385,25.761
	c3.804,13.267,17.643,20.94,30.91,17.136l183.884-52.719c7.573-2.171,7.323-3.947-0.554-3.947L110.169,432.558L110.169,432.558z"/>
<path style="fill:#FFC61B;" d="M131.191,504.52L131.191,504.52c-17.435,0-32.971-11.715-37.78-28.486l-7.385-25.761
	c-2.286-7.972-0.92-16.098,3.748-22.291c4.669-6.195,12.101-9.747,20.394-9.747h211.249c15.174,0,19.389,7.336,20.256,13.489
	c0.865,6.155-1.166,14.367-15.754,18.55l-183.884,52.716C138.5,504.005,134.849,504.52,131.191,504.52z M114.853,446.881
	l6.094,21.26c1.306,4.553,5.519,7.734,10.244,7.734c0.987,0,1.979-0.142,2.952-0.42l99.668-28.574L114.853,446.881L114.853,446.881z
	"/>
<g>
</g>
<g>
</g>
<g>
</g>
<g>
</g>
<g>
</g>
<g>
</g>
<g>
</g>
<g>
</g>
<g>
</g>
<g>
</g>
<g>
</g>
<g>
</g>
<g>
</g>
<g>
</g>
<g>
</g>
</svg>
